<?xml version="1.0" encoding="utf-8"?>
<!-- Generator: Adobe Illustrator 27.5.0, SVG Export Plug-In . SVG Version: 6.00 Build 0)  -->
<svg version="1.1" xmlns="http://www.w3.org/2000/svg" xmlns:xlink="http://www.w3.org/1999/xlink" x="0px" y="0px"
	 viewBox="0 0 500 500" style="enable-background:new 0 0 500 500;" xml:space="preserve">
<g id="BACLKGROUND">
	<rect style="fill:#E8A745;" width="500" height="500"/>
</g>
<g id="OBJECTS">
	<rect y="437.238" style="fill:#CC862B;" width="500" height="62.762"/>
	<g>
		<g>
			<polygon style="fill:#E0C28D;" points="168.71,317.436 146.055,437.238 151.343,437.238 180.806,317.436 			"/>
			<polygon style="fill:#E0C28D;" points="230.52,317.436 253.174,437.238 247.886,437.238 218.423,317.436 			"/>
		</g>
		<g>
			<polygon style="fill:#EAD5AC;" points="110.972,317.436 88.317,437.238 93.605,437.238 123.068,317.436 			"/>
			<polygon style="fill:#EAD5AC;" points="172.781,317.436 195.436,437.238 190.148,437.238 160.686,317.436 			"/>
		</g>
		<path style="fill:#5C5DAD;" d="M174.745,164.711c-0.872,0.174-67.109,0.05-85.871,0.011c-2.709-0.005-4.902,2.189-4.902,4.898
			v117.816c0,16.568,13.431,30,30,30h69.016h54.017v-16.303h-62.26V164.711z"/>
		<path style="fill:#7E82CE;" d="M187.989,312.436h-74.017c-13.808,0-25-11.193-25-25V164.722c-0.032,0-0.063,0-0.095,0
			c-2.709-0.005-4.905,2.189-4.905,4.898v117.816c0,16.568,13.431,30,30,30h69.017h54.017v-5H187.989z"/>
	</g>
	<g>
		<path style="fill:#DD564F;" d="M163.671,83.017c0,0,1.76-9.305,9.06-11.706C174.08,77.338,167.816,83.191,163.671,83.017z"/>
		<path style="fill:#7C4071;" d="M137.033,135.711c0,0-42.012,4.26-21.939,50c22.806,6.875,31.154,7.5,31.154,7.5l8.188-53.5
			l-4.836-3.45l-8.118-3.55L137.033,135.711z"/>
		<path style="fill:#7C4071;" d="M131.402,117.302c0,0,4.005,12.914,8.482,18.068c4.477,5.154,11.679,6.742,11.679,6.742
			l-0.857-24.811H131.402z"/>
		<path style="fill:#2F0E2B;" d="M137.763,132.345c0,0-2.554,3.62,1.527,6.792c4.081,3.172,12.273,5.551,12.273,5.551v-3.569
			L137.763,132.345z"/>
		<path style="fill:#21081F;" d="M231.701,287.233l27.106,4.199l-3.955,119.542h-8.843c0,0-28.421-76.492-15.347-98.191
			c-17.026,1.399-20.602,0.35-20.602,0.35L231.701,287.233z"/>
		<path style="fill:#2F0E2B;" d="M106.286,277.166c0,0-20.049,33.861,16.701,34.739c36.75,0.878,73.849-3.15,73.849-3.15
			s-9.199,3.207-18.23,29.23c-9.032,26.023-14.86,51.446-14.86,51.446l6.841,4.2L238.1,285.233c0,0-31.464-8.5-51.414-13.05
			C166.736,267.633,121.085,264.998,106.286,277.166z"/>
		<path style="fill:#DD564F;" d="M160.283,388.463c0,0,10.086,1.462,14.726,5.169c-0.605,8.145,5.245,26.098,5.245,26.098
			s17.348,2.34,17.348,17.509c-22.592,0-29.854,0-29.854,0l-20.374-27.903L160.283,388.463z"/>
		<path style="fill:#FFC6BB;" d="M254.235,237.211l12.092,2.5c0,0,4.711-4.639,8.501-5c3.79-0.36,12.025,4.152,13.619,5
			c1.595,0.848-2.627,14.317-5.359,14.785c-2.732,0.468-5.96,1.963-10.43,1.215c-4.471-0.747-1.143-9-1.143-9l-5.189-2l-20.318,2.5
			L254.235,237.211z"/>
		<g>
			<g>
				<path style="fill:#C15C4C;" d="M265.384,243.551c1.22,0.541,2.45,1.048,3.717,1.421c1.252,0.391,2.549,0.697,3.809,0.671
					l0.165-0.003l0.13,0.143c1.008,1.112,2.368,1.923,3.801,2.292c0.685,0.178,1.522,0.216,1.917-0.048
					c0.338-0.161,0.166-0.847-0.253-1.511c-0.753-1.331-1.728-2.593-2.703-3.837c-1.002-1.229-2.021-2.455-3.057-3.676
					c1.25,1.002,2.438,2.084,3.543,3.248c1.116,1.157,2.185,2.367,3.05,3.788c0.2,0.355,0.433,0.733,0.54,1.234
					c0.142,0.46-0.021,1.229-0.546,1.565c-0.486,0.329-0.985,0.371-1.433,0.369c-0.454-0.007-0.884-0.081-1.3-0.189
					c-1.645-0.451-3.12-1.411-4.148-2.754l0.294,0.14c-1.412-0.072-2.722-0.48-3.972-0.977
					C267.7,244.891,266.5,244.289,265.384,243.551z"/>
			</g>
			<g>
				<path style="fill:#C15C4C;" d="M278.449,238.398c0.381,1.03,0.419,2.073,0.353,3.106c-0.102,1.026-0.315,2.072-0.918,2.996
					c-0.176-1.078-0.15-2.067-0.078-3.079C277.903,240.414,278.042,239.413,278.449,238.398z"/>
			</g>
			<g>
				<path style="fill:#C15C4C;" d="M276.153,247.798c-0.109,1.139-0.495,2.146-0.945,3.122c-0.479,0.962-1.023,1.892-1.846,2.688
					c0.107-1.14,0.493-2.146,0.945-3.121C274.788,249.526,275.333,248.596,276.153,247.798z"/>
			</g>
			<g>
				<path style="fill:#C15C4C;" d="M282.486,239.546c0.206,1.284,0.067,2.588-0.113,3.856c-0.186,1.275-0.487,2.531-0.874,3.763
					c-0.79,2.441-1.944,4.857-3.766,6.701c1.162-2.292,2.058-4.605,2.814-7.005c0.395-1.19,0.728-2.402,1.065-3.618
					C281.917,242.021,282.306,240.81,282.486,239.546z"/>
			</g>
		</g>
		<path style="fill:#DD564F;" d="M177.47,181.167l42.943,47.544c0,0,4.432-3.076,2.445,2c16.049,0.833,31.378,6.5,31.378,6.5
			l-12.181,19.259c0,0-39.129-10.019-44.745-13.759c-5.615-3.74-25.773-31.28-25.773-31.28l-8.538,1.187l-8.802,55.529
			c0,0-35.178-0.796-47.91,9.018c-3.979-9.284,3.375-26.455,3.375-26.455l8.561-44.89l44.775-22.11L177.47,181.167z"/>
		<g>
			<polygon style="fill:#1C071B;" points="186.98,249.731 177.47,220.822 173.465,221.79 183.349,251.31 186.98,253.886 			"/>
			<path style="fill:#1C071B;" d="M176.614,221.578c0,0-0.689-2.814-2.09-2.573s0.499,3.595,0.499,3.595L176.614,221.578z"/>
		</g>
		<path style="fill:#FFC6BB;" d="M135.335,238.398l21.595,2.314c0,0,12.665-8.672,16.143-10c3.477-1.327,13.411,11.179,15.149,12.5
			c1.738,1.322,0.249,3.443-1.738,3.5c-2.732-0.688-2.732-0.688-2.732-0.688s-3.288,5.196-7.356,6.323
			c-4.068,1.127-3.338,3.42-6.931,2.149c-3.594-1.27-9.057-4.331-9.554-5.285c-0.497-0.953-31.535-1.5-31.535-1.5L135.335,238.398z"
			/>
		<path style="fill:#DD564F;" d="M131.402,165.307c0,0-36.189,36.788-49.298,64.405c-4.38,9.965-2.358,14-2.358,14
			s26.69,10.785,36.086,12.201c9.396,1.417,14.872-1.416,14.872-1.416l4.632-16.099l-30.321-9.186l13.813-21.552l58.643-26.492
			l-31.222-13.956L131.402,165.307z"/>
		<g>
			<path style="fill:#B73E3B;" d="M132.63,247.798c-0.79,1.788-1.723,3.513-2.816,5.145c-1.112,1.616-2.274,3.234-4.057,4.404
				c-0.446,0.267-1.044,0.5-1.637,0.467c-0.51-0.015-1.007-0.052-1.498-0.116c-0.981-0.134-1.949-0.294-2.903-0.514
				c-1.913-0.412-3.791-0.953-5.635-1.601l5.772,0.832c0.958,0.126,1.913,0.266,2.865,0.341c0.475,0.041,0.947,0.077,1.409,0.08
				c0.39,0.017,0.735-0.124,1.119-0.351c0.753-0.448,1.439-1.117,2.082-1.807c0.654-0.689,1.251-1.44,1.852-2.192
				C130.362,250.963,131.505,249.395,132.63,247.798z"/>
		</g>
		<path style="fill:#FFC6BB;" d="M151.563,142.113l-5.315,13.611c0,0-9.763,3.04-14.845,9.582
			c6.813,7.137,35.164,16.059,46.067,15.86c-7.93-9.714-23.274-25.443-23.274-25.443l2.061-11.036L151.563,142.113z"/>
		<path style="fill:#FFC6BB;" d="M186.207,112.065c0,0,1.726,10.013,4.487,19.646c2.761,9.634-4.142,14.524-12.426,19.5
			c-8.284,4.977-10.7,4.5-10.7,4.5s-19.33-10.365-21.055-25.309c-1.726-14.944,5.522-32.872,5.522-32.872l14.497-3.317
			L186.207,112.065z"/>
		<path style="fill:#7C4071;" d="M148.497,90.85c0,0,12.553-5.856,22.168-12.009c9.615-6.153,23.504,3.195,25.908,17.618
			c2.404,14.423-1.519,18.517-5.434,19.703c-3.916,1.186-12.194-12.758-12.194-12.758s6.944,10.435,2.404,12.83
			c-4.541,2.395-9.882-10.159-9.882-10.159s-8.21,12.355-21.866,13.79c-5.11,1.167-16.328,0.653-18.198-2.562
			c-1.87-3.215-4.006-17.241,2.671-20.244C140.751,94.055,148.497,90.85,148.497,90.85z"/>
		<path style="fill:#DD564F;" d="M245.212,413.344l0.796-2.369c0,0,9.837-2.708,12.798-1.163
			c2.961,1.545,18.855,11.699,28.566,13.023c9.713,1.324,16.776,4.305,16.335,14.403c-22.295,0-60.703,0-60.703,0L245.212,413.344z"
			/>
		<path style="fill:#DD564F;" d="M166.857,81.179c0,0-15.34,17.5-17.257,38.685c-2.203-0.427-1.233-0.883-1.233-0.883
			s-2.629-17.311,3.925-29.969L166.857,81.179z"/>
		<path style="fill:#FFC6BB;" d="M153.071,123.211c0,0-7.594-9.307-12.771-4.561c-5.177,4.746,1.687,16.543,9.3,13.06
			C157.213,128.229,153.071,123.211,153.071,123.211z"/>
		<path style="fill:#DD564F;" d="M163.671,83.017c0,0-5.253-10.15-14.414-10.123C151.261,79.933,157.618,83.811,163.671,83.017z"/>
		<path style="fill:none;stroke:#2F0E2B;stroke-width:1.5;stroke-miterlimit:10;" d="M146.346,129.765
			c0,0.899-0.729,1.628-1.628,1.628c-0.899,0-1.628-0.729-1.628-1.628c0-0.899,0.729-1.628,1.628-1.628
			C145.617,128.136,146.346,128.865,146.346,129.765z"/>
		<g>
			<path style="fill:#C15C4C;" d="M178.361,125.882c-0.144,0.327-0.076,0.725-0.103,1.085c-0.003,0.37,0.004,0.739,0.016,1.109
				l0.103,2.212c0.046,0.735,0.091,1.469,0.177,2.192c0.043,0.36,0.085,0.72,0.149,1.066c0.055,0.32,0.169,0.738,0.254,0.837
				l-0.45-0.175c1.268-0.22,2.572-0.357,3.912-0.138c0.335,0.058,0.671,0.14,1.009,0.283c0.331,0.125,0.692,0.344,0.966,0.726
				c0.307,0.396,0.235,1.065-0.016,1.385c-0.229,0.346-0.522,0.587-0.796,0.78c-1.093,0.757-2.354,1.236-3.653,1.383
				c-1.288,0.147-2.663-0.074-3.71-0.801c1.17,0.496,2.44,0.503,3.615,0.232c1.177-0.273,2.291-0.799,3.227-1.521
				c0.232-0.177,0.413-0.362,0.524-0.545c0.107-0.198,0.079-0.267,0.008-0.384c-0.187-0.269-0.793-0.484-1.341-0.563
				c-1.146-0.176-2.382-0.09-3.586,0.088l-0.315,0.047l-0.135-0.222c-0.323-0.528-0.309-0.872-0.389-1.273
				c-0.051-0.386-0.084-0.765-0.101-1.143c-0.026-0.755-0.028-1.503,0.003-2.251c0.034-0.747,0.081-1.492,0.173-2.233
				c0.044-0.371,0.092-0.741,0.15-1.11C178.126,126.592,178.149,126.189,178.361,125.882z"/>
		</g>
		<g>
			<path style="fill:#C15C4C;" d="M174.981,142.113c-0.876,0.577-1.954,0.854-3.036,0.84c-1.088,0.001-2.177-0.334-3.124-0.889
				c-0.932-0.586-1.694-1.38-2.29-2.261c-0.294-0.441-0.517-0.925-0.757-1.388c-0.177-0.496-0.354-0.988-0.485-1.489
				c0.334,0.409,0.622,0.829,0.911,1.243c0.329,0.386,0.626,0.788,0.951,1.158c0.672,0.721,1.376,1.388,2.189,1.882
				C170.962,142.197,172.941,142.499,174.981,142.113z"/>
		</g>
		<path style="fill:#FFFFFF;" d="M173.741,126.784c-2.254-9.691-11.607-6.92-11.607-6.92s-1.044,7.711,7.438,8.948
			C172.614,129.038,173.741,126.784,173.741,126.784z"/>
		<path style="fill:#FFFFFF;" d="M179.407,127.132c0,0,0.386-5.057,7.558-5.542c0,0,0.016,7.251-4.181,7.575
			C180.615,128.813,179.407,127.132,179.407,127.132z"/>
		<path style="fill:#2F0E2B;" d="M173.178,125.206c0,2.054-1.248,3.719-2.789,3.719c-1.54,0-2.789-1.665-2.789-3.719
			c0-2.054,1.249-3.719,2.789-3.719C171.929,121.488,173.178,123.153,173.178,125.206z"/>
		<path style="fill:#2F0E2B;" d="M184.907,126.072c0,1.66-1.01,3.007-2.255,3.007c-1.245,0-2.255-1.347-2.255-3.007
			c0-1.661,1.01-3.007,2.255-3.007C183.897,123.065,184.907,124.412,184.907,126.072z"/>
		<g>
			<path style="fill:#2F0E2B;" d="M162.134,119.864c1.191-0.508,2.509-0.745,3.833-0.713c1.325,0.023,2.672,0.363,3.858,1.033
				c1.168,0.682,2.198,1.663,2.802,2.86c0.38,0.555,0.53,1.217,0.77,1.822c0.154,0.637,0.261,1.283,0.344,1.918
				c-0.303-0.582-0.5-1.184-0.8-1.738c-0.336-0.533-0.568-1.116-0.972-1.582c-0.683-1.018-1.607-1.823-2.638-2.411
				c-1.03-0.603-2.208-0.951-3.426-1.127C164.684,119.771,163.417,119.732,162.134,119.864z"/>
		</g>
		<g>
			<path style="fill:#2F0E2B;" d="M179.407,127.132c-0.096-0.875,0.158-1.778,0.602-2.562c0.44-0.796,1.108-1.455,1.859-1.962
				c0.765-0.495,1.622-0.801,2.487-0.978c0.433-0.085,0.876-0.104,1.307-0.141c0.439,0.02,0.874,0.037,1.303,0.101
				c-0.414,0.158-0.822,0.27-1.225,0.384l-1.175,0.408c-0.756,0.311-1.497,0.621-2.151,1.063
				C181.096,124.305,180.04,125.519,179.407,127.132z"/>
		</g>
		<g>
			<g>
				<path style="fill:#7C4071;" d="M172.918,113.712c-0.879,0.209-1.714,0.517-2.571,0.753c-0.851,0.256-1.706,0.484-2.558,0.721
					c-1.718,0.444-3.41,0.887-5.204,1.23c1.488-1.077,3.212-1.72,4.947-2.196c0.875-0.222,1.758-0.413,2.658-0.516
					C171.084,113.609,172.008,113.509,172.918,113.712z"/>
			</g>
			<g>
				<path style="fill:#7C4071;" d="M183.186,115.061c0.837-0.183,1.608,0.006,2.324,0.276c0.704,0.304,1.373,0.708,1.867,1.402
					c-0.851,0.014-1.554-0.21-2.244-0.477C184.45,115.97,183.804,115.636,183.186,115.061z"/>
			</g>
		</g>
		<g>
			<path style="fill:#C15C4C;" d="M141.482,121.488c0.741-0.563,1.657-0.924,2.626-1.021c0.971-0.097,1.996,0.116,2.876,0.609
				c0.868,0.519,1.544,1.266,2.078,2.074c0.254,0.409,0.455,0.847,0.665,1.274c0.169,0.443,0.316,0.893,0.466,1.338l0.154,0.458
				l-0.477,0.025c-0.208,0.011-0.45,0.018-0.546,0.09c-0.105,0.042-0.15,0.202-0.107,0.436c0.098,0.451,0.361,0.921,0.633,1.365
				c-0.416-0.327-0.8-0.699-1.055-1.229c-0.127-0.241-0.193-0.7,0.123-1.012c0.298-0.292,0.616-0.316,0.912-0.375l-0.322,0.483
				c-0.198-0.402-0.399-0.798-0.579-1.201l-0.676-1.119c-0.508-0.692-1.067-1.336-1.765-1.788
				C145.098,120.984,143.242,120.928,141.482,121.488z"/>
		</g>
		<g>
			<path style="fill:#C15C4C;" d="M139.371,167.126c3.848,0.199,7.657,0.663,11.454,1.202l0.193,0.027l0.131,0.166
				c0.381,0.483,0.801,0.974,1.239,1.409c0.43,0.426,0.943,0.848,1.38,0.984c0.223,0.051,0.291,0.048,0.41-0.085
				c0.123-0.139,0.216-0.416,0.276-0.695c0.111-0.58,0.129-1.222,0.115-1.857l-0.008-0.385l0.361,0.009
				c0.419,0.01,0.84,0.025,1.261,0.009c0.419-0.02,0.84-0.044,1.258-0.097c0.419-0.052,0.836-0.125,1.245-0.236
				c0.405-0.119,0.816-0.242,1.194-0.45c-0.672,0.556-1.52,0.858-2.357,1.097c-0.847,0.233-1.725,0.341-2.601,0.383l0.352-0.376
				c0.061,0.665,0.109,1.337,0.019,2.048c-0.066,0.356-0.136,0.733-0.417,1.113c-0.129,0.19-0.369,0.358-0.623,0.436
				c-0.261,0.071-0.511,0.05-0.721-0.001c-0.826-0.239-1.318-0.733-1.828-1.191c-0.495-0.477-0.936-0.971-1.348-1.523l0.323,0.193
				C146.89,168.718,143.111,168.054,139.371,167.126z"/>
		</g>
		<g>
			<path style="fill:#B73E3B;" d="M169.464,184.784c1.754,2.073,3.316,4.3,4.761,6.605c1.439,2.309,2.757,4.702,3.701,7.313
				c0.447,1.308,0.772,2.67,0.894,4.067c0.101,1.39,0.016,2.85-0.549,4.177c-0.542,1.33-1.555,2.441-2.765,3.142
				c-1.235,0.676-2.595,0.973-3.937,1.13c1.301-0.378,2.601-0.772,3.676-1.545c1.081-0.741,1.907-1.79,2.308-3.001
				c0.4-1.21,0.476-2.522,0.325-3.814c-0.141-1.294-0.453-2.583-0.896-3.829c-0.873-2.493-2.152-4.882-3.417-7.252
				c-0.639-1.186-1.314-2.354-2.008-3.512C170.887,187.088,170.169,185.943,169.464,184.784z"/>
		</g>
		<g>
			<path style="fill:#B73E3B;" d="M113.284,231.717c3.88,0.275,7.704,0.986,11.473,1.93c1.877,0.503,3.747,1.054,5.564,1.771
				c1.79,0.735,3.648,1.565,5.015,2.979c-0.816-0.538-1.653-0.979-2.562-1.3c-0.886-0.361-1.804-0.642-2.712-0.942
				c-1.836-0.556-3.692-1.058-5.555-1.54C120.778,233.649,117.025,232.767,113.284,231.717z"/>
		</g>
		<g>
			<path style="fill:#B73E3B;" d="M123.357,198.001c-0.74,2.314-1.753,4.489-2.829,6.631c-1.104,2.128-2.275,4.222-3.719,6.176
				c0.738-2.315,1.751-4.49,2.829-6.631C120.744,202.05,121.915,199.956,123.357,198.001z"/>
		</g>
		<g>
			<g>
				<path style="fill:#C15C4C;" d="M183.751,246.023c-1.446-0.497-2.721-1.247-3.957-2.057c-1.218-0.836-2.395-1.734-3.399-2.887
					c1.447,0.495,2.723,1.245,3.957,2.057C181.568,243.975,182.745,244.872,183.751,246.023z"/>
			</g>
			<g>
				<path style="fill:#C15C4C;" d="M180.223,249.731c-1.316-0.272-2.485-0.813-3.619-1.416c-1.12-0.631-2.203-1.327-3.139-2.292
					c1.317,0.27,2.486,0.811,3.619,1.416C178.202,248.072,179.286,248.768,180.223,249.731z"/>
			</g>
			<g>
				<path style="fill:#C15C4C;" d="M175.311,252.721c-1.24-0.09-2.363-0.461-3.458-0.899c-1.083-0.467-2.137-1.002-3.073-1.821
					c1.241,0.087,2.363,0.459,3.458,0.899C173.32,251.368,174.374,251.903,175.311,252.721z"/>
			</g>
		</g>
		<path style="fill:none;stroke:#EF716F;stroke-linecap:round;stroke-linejoin:round;stroke-miterlimit:10;" d="M175.012,401.69
			c0.489-0.087,0.979-0.174,1.468-0.261c-5.077,0.111-10.138,0.926-14.993,2.415c3.431,0.012,6.864,0.022,10.287,0.252
			c1.796,0.12,3.696,0.342,5.118,1.447c-3.865,0.029-7.726,0.592-11.438,1.667c4.271,0.725,8.824-0.56,12.904,0.898
			c-4.75,1.006-9.501,2.012-14.251,3.018c3.916,0.087,7.831,0.173,11.747,0.26c1.104,0.024,2.237,0.055,3.262,0.467
			c-4.359,0.514-8.664,1.484-12.822,2.893c4.872,1.162,10.304-0.85,14.858,1.235c-4.284,0.752-8.567,1.505-12.852,2.257
			c4.735,0.22,9.47,0.438,14.205,0.658c-1.592,0.551-3.184,1.102-4.776,1.653"/>
		<path style="fill:none;stroke:#EF716F;stroke-linecap:round;stroke-linejoin:round;stroke-miterlimit:10;" d="M173.515,395.883
			c1.182-0.203,2.367-0.492,3.563-0.415c3.097,0.201,5.536,2.814,6.869,5.616c-5.008-0.047-9.991-1.627-14.11-4.476
			c0.288,0.048,0.174,0.493-0.017,0.713c-2.319,2.668-6.028,4.354-7.054,7.735c2.595-2.869,5.295-5.816,8.822-7.407
			c0.183-0.082,0.393-0.161,0.577-0.082c0.187,0.081,0.273,0.292,0.341,0.483c0.98,2.756,1.968,5.509,2.941,8.267
			c-1.258-3.297-2.206-8.344-4.423-11.159c-2.293-2.913-8.025-2.905-10.719-0.654C164.164,396.435,169.33,396.602,173.515,395.883z"
			/>
		<path style="fill:none;stroke:#EF716F;stroke-linecap:round;stroke-linejoin:round;stroke-miterlimit:10;" d="M265.771,414.239
			c0.021-0.947-0.982-1.556-1.872-1.882c-3.066-1.126-6.455-1.361-9.647-0.67c-0.469,0.101-0.983,0.26-1.215,0.68
			c-0.464,0.843,0.592,1.716,1.508,2.009c3.076,0.986,6.581,0.539,9.312-1.188c-0.192-0.195-0.554-0.179-0.728,0.033
			c3.725-1.336,6.561-4.838,10.478-5.401c0.743-0.106,1.532-0.094,2.207,0.236c0.675,0.331,1.202,1.037,1.147,1.786
			c-0.081,1.079-1.209,1.721-2.194,2.167c-1.653,0.751-3.325,1.508-5.106,1.863c-1.781,0.355-3.709,0.277-5.31-0.579
			c0.009-0.193,0.335-0.2,0.43-0.031c0.096,0.168,0.031,0.379-0.037,0.56c-0.751,2.001-1.703,3.926-2.837,5.737
			c0.104-2.427,1.134-4.802,2.832-6.537c2.294,2.018,4.587,4.035,6.88,6.054"/>
		<path style="fill:none;stroke:#EF716F;stroke-linecap:round;stroke-linejoin:round;stroke-miterlimit:10;" d="M269.302,415.433
			c-3.267,1.183-6.534,2.366-9.802,3.549c5.076-0.209,10.133-0.867,15.094-1.963c-2.354,0.744-4.667,1.619-6.924,2.621
			c1.14,0.209,2.311,0.057,3.461-0.097c3.132-0.418,6.264-0.835,9.396-1.253c-2.927,1.147-5.854,2.296-8.781,3.443
			c3.462-0.39,6.923-0.778,10.385-1.168c-1.537,1.083-3.204,1.98-4.954,2.666c2.828,0.013,5.658-0.413,8.357-1.258"/>
	</g>
	<g>
		<g>
			<path style="fill:#5C5DAD;" d="M376.522,257.303h-20.446c-1.657,0-3-1.343-3-3V224.79c0-1.657,1.343-3,3-3h20.446
				c1.657,0,3,1.343,3,3v29.513C379.522,255.96,378.18,257.303,376.522,257.303z"/>
			<path style="fill:none;stroke:#5C5DAD;stroke-width:3;stroke-miterlimit:10;" d="M355.743,231.504h-6.233c-2.762,0-5,2.238-5,5
				v3.786c0,2.761,2.238,5,5,5h6.233"/>
		</g>
		<g>
			<g>
				<g>
					<path style="fill:#DD564F;" d="M399.982,257.712h-3.5V120.536c0-26.605-21.643-48.25-48.25-48.25
						c-10.863,0-21.388,4.513-28.876,12.382l-1.097,1.152l-2.534-2.413l1.097-1.152c8.146-8.559,19.595-13.469,31.41-13.469
						c28.536,0,51.75,23.215,51.75,51.75V257.712z"/>
				</g>
			</g>
			<g>
				<path style="fill:#AD2D2A;" d="M399.982,257.712h-3.5v-1h3.5V257.712z M399.982,255.711h-3.5v-1h3.5V255.711z M399.982,253.711
					h-3.5v-1h3.5V253.711z M399.982,251.711h-3.5v-1h3.5V251.711z M399.982,249.711h-3.5v-1h3.5V249.711z M399.982,247.711h-3.5v-1
					h3.5V247.711z M399.982,245.711h-3.5v-1h3.5V245.711z M399.982,243.711h-3.5v-1h3.5V243.711z M399.982,241.711h-3.5v-1h3.5
					V241.711z M399.982,239.711h-3.5v-1h3.5V239.711z M399.982,237.711h-3.5v-1h3.5V237.711z M399.982,235.711h-3.5v-1h3.5V235.711z
					 M399.982,233.711h-3.5v-1h3.5V233.711z M399.982,231.711h-3.5v-1h3.5V231.711z M399.982,229.711h-3.5v-1h3.5V229.711z
					 M399.982,227.711h-3.5v-1h3.5V227.711z M399.982,225.711h-3.5v-1h3.5V225.711z M399.982,223.711h-3.5v-1h3.5V223.711z
					 M399.982,221.711h-3.5v-1h3.5V221.711z M399.982,219.711h-3.5v-1h3.5V219.711z M399.982,217.711h-3.5v-1h3.5V217.711z
					 M399.982,215.711h-3.5v-1h3.5V215.711z M399.982,213.711h-3.5v-1h3.5V213.711z M399.982,211.711h-3.5v-1h3.5V211.711z
					 M399.982,209.711h-3.5v-1h3.5V209.711z M399.982,207.711h-3.5v-1h3.5V207.711z M399.982,205.711h-3.5v-1h3.5V205.711z
					 M399.982,203.711h-3.5v-1h3.5V203.711z M399.982,201.711h-3.5v-1h3.5V201.711z M399.982,199.711h-3.5v-1h3.5V199.711z
					 M399.982,197.711h-3.5v-1h3.5V197.711z M399.982,195.711h-3.5v-1h3.5V195.711z M399.982,193.711h-3.5v-1h3.5V193.711z
					 M399.982,191.711h-3.5v-1h3.5V191.711z M399.982,189.711h-3.5v-1h3.5V189.711z M399.982,187.711h-3.5v-1h3.5V187.711z
					 M399.982,185.711h-3.5v-1h3.5V185.711z M399.982,183.711h-3.5v-1h3.5V183.711z M399.982,181.711h-3.5v-1h3.5V181.711z
					 M399.982,179.711h-3.5v-1h3.5V179.711z M399.982,177.711h-3.5v-1h3.5V177.711z M399.982,175.711h-3.5v-1h3.5V175.711z
					 M399.982,173.711h-3.5v-1h3.5V173.711z M399.982,171.711h-3.5v-1h3.5V171.711z M399.982,169.711h-3.5v-1h3.5V169.711z
					 M399.982,167.711h-3.5v-1h3.5V167.711z M399.982,165.711h-3.5v-1h3.5V165.711z M399.982,163.711h-3.5v-1h3.5V163.711z
					 M399.982,161.711h-3.5v-1h3.5V161.711z M399.982,159.711h-3.5v-1h3.5V159.711z M399.982,157.711h-3.5v-1h3.5V157.711z
					 M399.982,155.711h-3.5v-1h3.5V155.711z M399.982,153.711h-3.5v-1h3.5V153.711z M399.982,151.711h-3.5v-1h3.5V151.711z
					 M399.982,149.711h-3.5v-1h3.5V149.711z M399.982,147.711h-3.5v-1h3.5V147.711z M399.982,145.711h-3.5v-1h3.5V145.711z
					 M399.982,143.711h-3.5v-1h3.5V143.711z M399.982,141.711h-3.5v-1h3.5V141.711z M399.982,139.711h-3.5v-1h3.5V139.711z
					 M399.982,137.711h-3.5v-1h3.5V137.711z M399.982,135.711h-3.5v-1h3.5V135.711z M399.982,133.711h-3.5v-1h3.5V133.711z
					 M399.982,131.711h-3.5v-1h3.5V131.711z M399.982,129.711h-3.5v-1h3.5V129.711z M399.982,127.711h-3.5v-1h3.5V127.711z
					 M399.982,125.711h-3.5v-1h3.5V125.711z M399.982,123.711h-3.5v-1h3.5V123.711z M399.982,121.711h-3.5v-1h3.5V121.711z
					 M396.477,119.743c-0.007-0.324-0.015-0.646-0.025-0.969l3.497-0.122c0.012,0.343,0.022,0.686,0.028,1.03L396.477,119.743z
					 M396.407,117.811c-0.018-0.321-0.039-0.642-0.063-0.962l3.491-0.267c0.025,0.344,0.049,0.689,0.066,1.035L396.407,117.811z
					 M396.262,115.889c-0.031-0.323-0.064-0.644-0.102-0.962l3.477-0.401c0.04,0.34,0.077,0.683,0.11,1.026L396.262,115.889z
					 M396.039,113.969c-0.042-0.318-0.088-0.636-0.138-0.953l3.456-0.544c0.054,0.341,0.103,0.683,0.151,1.025L396.039,113.969z
					 M395.742,112.065c-0.058-0.317-0.116-0.634-0.179-0.95l3.434-0.679c0.066,0.337,0.13,0.675,0.189,1.015L395.742,112.065z
					 M395.367,110.171c-0.069-0.314-0.141-0.626-0.216-0.938l3.403-0.822c0.08,0.336,0.157,0.673,0.231,1.012L395.367,110.171z
					 M394.917,108.293c-0.082-0.311-0.166-0.62-0.253-0.929l3.367-0.955c0.095,0.333,0.185,0.667,0.271,1.001L394.917,108.293z
					 M394.393,106.439c-0.095-0.309-0.191-0.616-0.292-0.922l3.326-1.092c0.108,0.33,0.212,0.661,0.313,0.993L394.393,106.439z
					 M393.789,104.598c-0.107-0.304-0.216-0.607-0.329-0.908l3.279-1.226c0.121,0.325,0.238,0.651,0.354,0.979L393.789,104.598z
					 M393.114,102.784c-0.12-0.3-0.242-0.599-0.366-0.897l3.229-1.351c0.134,0.319,0.264,0.639,0.392,0.961L393.114,102.784z
					 M392.364,101.002c-0.132-0.296-0.266-0.592-0.402-0.884l3.174-1.477c0.146,0.312,0.288,0.625,0.429,0.94L392.364,101.002z
					 M391.544,99.248c-0.142-0.288-0.285-0.574-0.434-0.858l3.104-1.617c0.161,0.309,0.316,0.619,0.47,0.93L391.544,99.248z
					 M390.656,97.53c-0.153-0.282-0.309-0.562-0.467-0.841l3.037-1.738c0.172,0.301,0.342,0.605,0.506,0.91L390.656,97.53z
					 M389.699,95.852c-0.164-0.275-0.331-0.549-0.502-0.821l2.966-1.861c0.185,0.295,0.364,0.591,0.543,0.89L389.699,95.852z
					 M388.677,94.213c-0.176-0.271-0.355-0.541-0.538-0.808l2.899-1.963c0.19,0.284,0.382,0.569,0.571,0.858L388.677,94.213z
					 M387.589,92.617c-0.188-0.264-0.377-0.524-0.569-0.784l2.815-2.081c0.204,0.276,0.407,0.555,0.607,0.836L387.589,92.617z
					 M386.439,91.064c-0.197-0.255-0.396-0.508-0.599-0.758l2.728-2.195c0.217,0.27,0.429,0.54,0.641,0.813L386.439,91.064z
					 M385.227,89.56c-0.205-0.246-0.415-0.491-0.625-0.733l2.634-2.303c0.229,0.261,0.454,0.524,0.675,0.789L385.227,89.56z
					 M383.96,88.106c-0.217-0.238-0.438-0.476-0.658-0.71l2.546-2.403c0.236,0.25,0.47,0.502,0.7,0.757L383.96,88.106z
					 M382.632,86.702c-0.225-0.229-0.451-0.457-0.683-0.681l2.448-2.503c0.246,0.241,0.491,0.485,0.733,0.731L382.632,86.702z
					 M318.289,85.79l-2.534-2.413l0.689-0.725l2.535,2.413L318.289,85.79z M381.253,85.355c-0.234-0.22-0.472-0.438-0.71-0.654
					l2.346-2.598c0.255,0.231,0.509,0.464,0.759,0.699L381.253,85.355z M319.659,84.355l-2.511-2.438
					c0.242-0.249,0.487-0.495,0.735-0.738l2.451,2.498C320.106,83.9,319.881,84.127,319.659,84.355z M379.822,84.063
					c-0.244-0.211-0.488-0.419-0.736-0.625l2.238-2.691c0.265,0.221,0.527,0.444,0.789,0.67L379.822,84.063z M321.023,83.017
					l-2.389-2.558c0.254-0.237,0.51-0.471,0.767-0.701l2.33,2.612C321.494,82.584,321.259,82.798,321.023,83.017z M378.337,82.828
					c-0.248-0.2-0.5-0.396-0.754-0.59l2.123-2.782c0.275,0.211,0.549,0.424,0.818,0.641L378.337,82.828z M322.453,81.744
					l-2.264-2.669c0.266-0.224,0.533-0.446,0.803-0.664l2.198,2.723C322.943,81.334,322.697,81.538,322.453,81.744z M376.81,81.655
					c-0.258-0.19-0.517-0.378-0.779-0.562l2.015-2.862c0.282,0.2,0.563,0.401,0.84,0.606L376.81,81.655z M375.234,80.544
					c-0.266-0.18-0.533-0.358-0.804-0.532l1.904-2.936c0.29,0.188,0.576,0.377,0.862,0.571L375.234,80.544z M323.946,80.54
					l-2.14-2.771c0.276-0.213,0.555-0.421,0.837-0.627l2.064,2.826C324.451,80.155,324.197,80.346,323.946,80.54z M373.618,79.496
					c-0.271-0.169-0.544-0.335-0.82-0.497l1.779-3.014c0.299,0.176,0.595,0.355,0.887,0.538L373.618,79.496z M325.485,79.413
					l-1.996-2.875c0.287-0.199,0.575-0.394,0.864-0.585l1.924,2.924C326.011,79.052,325.747,79.231,325.485,79.413z M371.962,78.514
					c-0.277-0.158-0.56-0.313-0.842-0.465l1.662-3.08c0.304,0.164,0.604,0.33,0.904,0.5L371.962,78.514z M327.084,78.359
					l-1.854-2.969c0.293-0.184,0.589-0.363,0.887-0.54l1.786,3.01C327.628,78.022,327.355,78.189,327.084,78.359z M370.269,77.6
					c-0.283-0.146-0.57-0.29-0.858-0.431l1.537-3.144c0.31,0.151,0.617,0.306,0.923,0.463L370.269,77.6z M328.734,77.381
					l-1.716-3.051c0.304-0.17,0.608-0.337,0.916-0.5l1.638,3.092C329.292,77.072,329.011,77.225,328.734,77.381z M368.542,76.756
					c-0.29-0.134-0.582-0.267-0.878-0.396l1.412-3.204c0.314,0.14,0.629,0.28,0.939,0.425L368.542,76.756z M330.42,76.486
					l-1.556-3.134c0.31-0.154,0.621-0.305,0.935-0.453l1.486,3.169C330.995,76.204,330.708,76.344,330.42,76.486z M366.784,75.981
					c-0.298-0.124-0.595-0.244-0.895-0.362l1.283-3.255c0.32,0.126,0.638,0.254,0.954,0.385L366.784,75.981z M332.16,75.671
					l-1.416-3.202c0.319-0.14,0.641-0.277,0.962-0.41l1.333,3.236C332.743,75.418,332.451,75.542,332.16,75.671z M364.99,75.276
					c-0.301-0.111-0.604-0.22-0.906-0.326l1.146-3.307c0.326,0.113,0.651,0.229,0.976,0.35L364.99,75.276z M333.928,74.941
					l-1.254-3.268c0.324-0.125,0.649-0.245,0.978-0.362l1.177,3.296C334.526,74.715,334.227,74.827,333.928,74.941z M363.168,74.643
					c-0.304-0.099-0.611-0.196-0.919-0.29l1.015-3.35c0.33,0.101,0.66,0.204,0.988,0.311L363.168,74.643z M335.735,74.297
					l-1.099-3.324c0.329-0.109,0.661-0.213,0.993-0.314l1.018,3.348C336.343,74.101,336.039,74.197,335.735,74.297z M361.322,74.082
					c-0.311-0.086-0.62-0.17-0.932-0.251l0.882-3.388c0.334,0.087,0.667,0.177,0.999,0.271L361.322,74.082z M337.565,73.74
					l-0.935-3.372c0.335-0.093,0.671-0.182,1.008-0.267l0.854,3.393C338.185,73.573,337.875,73.655,337.565,73.74z M359.456,73.598
					c-0.314-0.075-0.629-0.146-0.945-0.215l0.749-3.419c0.335,0.073,0.671,0.149,1.006,0.229L359.456,73.598z M339.426,73.271
					l-0.774-3.413c0.339-0.077,0.68-0.15,1.021-0.219l0.691,3.431C340.049,73.134,339.736,73.201,339.426,73.271z M357.571,73.189
					c-0.314-0.062-0.631-0.121-0.945-0.175l0.6-3.449c0.34,0.059,0.681,0.123,1.018,0.189L357.571,73.189z M341.302,72.894
					l-0.604-3.447c0.341-0.061,0.684-0.116,1.025-0.169l0.528,3.461C341.933,72.786,341.618,72.838,341.302,72.894z M355.67,72.856
					c-0.317-0.049-0.635-0.095-0.952-0.137l0.46-3.47c0.344,0.046,0.686,0.095,1.025,0.148L355.67,72.856z M343.199,72.606
					l-0.439-3.473c0.343-0.044,0.688-0.083,1.033-0.119l0.359,3.482C343.835,72.528,343.518,72.565,343.199,72.606z M353.759,72.599
					c-0.318-0.036-0.637-0.069-0.957-0.099l0.321-3.486c0.346,0.033,0.689,0.068,1.032,0.107L353.759,72.599z M351.838,72.419
					c-0.32-0.024-0.642-0.044-0.962-0.061l0.184-3.495c0.346,0.018,0.689,0.04,1.034,0.065L351.838,72.419z M345.11,72.409
					l-0.28-3.488c0.347-0.028,0.695-0.052,1.045-0.07l0.189,3.495C345.745,72.363,345.428,72.384,345.11,72.409z M349.909,72.315
					c-0.32-0.01-0.644-0.019-0.965-0.023l0.051-3.5c0.345,0.005,0.69,0.014,1.032,0.025L349.909,72.315z M347.022,72.305
					l-0.108-3.499c0.35-0.01,0.697-0.017,1.046-0.019l0.021,3.5C347.66,72.29,347.341,72.295,347.022,72.305z"/>
			</g>
		</g>
		<g>
			<g>
				<g>
					<polygon style="fill:#F7F4C8;" points="149.6,264.028 172.567,437.238 176.395,437.238 160.126,262.593 					"/>
				</g>
				<g>
					<polygon style="fill:#F7F4C8;" points="86.364,264.028 63.397,437.238 59.569,437.238 75.838,262.593 					"/>
				</g>
			</g>
		</g>
		<g>
			<g>
				<g>
					<polygon style="fill:#F7F4C8;" points="407.023,264.028 429.99,437.238 433.818,437.238 417.55,262.593 					"/>
				</g>
				<g>
					<polygon style="fill:#F7F4C8;" points="343.788,264.028 320.82,437.238 316.993,437.238 333.262,262.593 					"/>
				</g>
			</g>
		</g>
		<rect x="68.995" y="257.329" style="fill:#2F0E2B;" width="360.776" height="7.655"/>
		<g>
			<rect x="201.216" y="252.347" style="fill:#F7F4C9;" width="4.889" height="2.523"/>
			<rect x="207.615" y="252.347" style="fill:#F7F4C9;" width="4.889" height="2.523"/>
			<rect x="214.014" y="252.347" style="fill:#F7F4C9;" width="4.889" height="2.523"/>
			<rect x="220.413" y="252.347" style="fill:#F7F4C9;" width="4.889" height="2.523"/>
			<rect x="226.811" y="252.347" style="fill:#F7F4C9;" width="4.889" height="2.523"/>
			<rect x="233.211" y="252.347" style="fill:#F7F4C9;" width="4.889" height="2.523"/>
			<rect x="239.61" y="252.347" style="fill:#F7F4C9;" width="4.889" height="2.523"/>
			<rect x="246.009" y="252.347" style="fill:#F7F4C9;" width="4.889" height="2.523"/>
			<rect x="252.407" y="252.347" style="fill:#F7F4C9;" width="4.89" height="2.523"/>
			<rect x="258.807" y="252.347" style="fill:#F7F4C9;" width="4.889" height="2.523"/>
			<rect x="265.206" y="252.347" style="fill:#F7F4C9;" width="4.889" height="2.523"/>
		</g>
		<rect x="193.458" y="253.866" style="fill:#DBC586;" width="81.37" height="3.437"/>
		<rect x="193.458" y="253.886" style="fill:#F7F4C9;" width="27.691" height="3.437"/>
		<g>
			<path style="fill:#F7F4C9;" d="M356.751,224.489H218.014c-2.761,0-5-2.239-5-5v-83.067c0-2.761,2.239-5,5-5h138.737
				c2.761,0,5,2.239,5,5v83.067C361.751,222.251,359.512,224.489,356.751,224.489z"/>
			<path style="fill:#EADAA9;" d="M356.751,224.489H224.014c-2.761,0-5-2.239-5-5v-83.067c0-2.761,2.239-5,5-5h132.737
				c2.761,0,5,2.239,5,5v83.067C361.751,222.251,359.512,224.489,356.751,224.489z"/>
			<path style="fill:#DBC586;" d="M317.331,245.089l-15.075-66.404h-16.573v65.944c0,5.523-4.478,9.999-10,9.999h-21.447v2.675
				h53.345C313.996,257.303,318.752,251.346,317.331,245.089z M298.923,221.79c-3.207,0-5.807-3.575-5.807-7.984
				c0-4.41,2.6-7.984,5.807-7.984c3.207,0,5.807,3.575,5.807,7.984C304.729,218.215,302.13,221.79,298.923,221.79z"/>
			<path style="fill:#F7F4C9;" d="M288.447,246.592v-67.907h-2.765v65.944c0,5.523-4.478,9.999-10,9.999h-21.447v2.675h24.621
				C284.25,256.71,288.447,252.143,288.447,246.592z"/>
			<path style="fill:#F7F4C9;" d="M298.923,205.822c-0.342,0-0.675,0.049-1,0.126c2.729,0.653,4.807,3.918,4.807,7.858
				c0,3.939-2.077,7.205-4.807,7.858c0.325,0.078,0.658,0.126,1,0.126c3.207,0,5.807-3.575,5.807-7.984
				C304.729,209.396,302.13,205.822,298.923,205.822z"/>
		</g>
		<g>
			<rect x="264.44" y="207.659" style="fill:#2F0E2B;" width="1.887" height="7.544"/>
			<rect x="260.177" y="207.659" style="fill:#2F0E2B;" width="1.887" height="7.544"/>
			<rect x="255.913" y="207.659" style="fill:#2F0E2B;" width="1.886" height="7.544"/>
			<rect x="251.649" y="207.659" style="fill:#2F0E2B;" width="1.886" height="7.544"/>
			<line style="fill:none;stroke:#2F0E2B;stroke-miterlimit:10;" x1="248.75" y1="213.061" x2="239.875" y2="213.061"/>
			<path style="fill:#2F0E2B;" d="M237.274,212.619c0,0.656-0.531,1.188-1.187,1.188c-0.656,0-1.188-0.532-1.188-1.188
				c0-0.656,0.532-1.187,1.188-1.187C236.743,211.432,237.274,211.963,237.274,212.619z"/>
			<path style="fill:#2F0E2B;" d="M232.188,212.619c0,0.656-0.531,1.188-1.187,1.188c-0.656,0-1.187-0.532-1.187-1.188
				c0-0.656,0.532-1.187,1.187-1.187C231.656,211.432,232.188,211.963,232.188,212.619z"/>
		</g>
		<rect x="330.391" y="248.987" style="fill:#DD564F;" width="78.688" height="8.316"/>
		<rect x="376.141" y="248.987" style="fill:#CC413E;" width="32.938" height="8.316"/>
		<rect x="377.493" y="249.819" style="fill:#F7F4C9;" width="31.586" height="6.652"/>
		<path style="fill:#1C071B;" d="M196.787,254.496h-66.084c-1.565,0-2.833,1.269-2.833,2.833l0,0h71.75l0,0
			C199.621,255.765,198.352,254.496,196.787,254.496z"/>
		<polygon style="fill:#1C071B;" points="100.93,245.29 115.831,245.29 113.831,257.329 102.93,257.329 		"/>
		<line style="fill:none;stroke:#3A1237;stroke-miterlimit:10;" x1="101.668" y1="249.731" x2="115.094" y2="249.731"/>
		<path style="fill:#5C5DAD;" d="M313.718,120.988l-30.93-20.462l7.651-11.565c5.65-8.541,17.155-10.884,25.696-5.233l0,0
			c8.541,5.65,10.884,17.155,5.233,25.696L313.718,120.988z"/>
		<path style="fill:#9699E2;" d="M282.788,100.526c0,0,7.477-3.055,19.153,4.025c11.678,7.081,14.03,12.863,11.776,16.437
			c-2.254,3.574-14.628-3.199-20.602-7.509S280.333,104.236,282.788,100.526z"/>
		<g>
			<path style="fill:#FFFFFF;" d="M355.743,372.901l-3.947-12.14l12.835-5.658l1.373,5.658l3.731-5.658c0,0,3.648-5.352,6.406-3.94
				c2.758,1.411,5.017,3.94,5.017,3.94l3.105,2.553l3.671-0.565l2.258-7.341l6.291,1.694l5.284,6.775l1.694,5.364v11.575
				L355.743,372.901z"/>
			<path style="fill:#2F0E2B;" d="M410.023,360.449c-2.879,0-60.959,0-60.959,0l4.812,76.789h49.106L410.023,360.449z"/>
			<line style="fill:none;stroke:#5B2351;stroke-miterlimit:10;" x1="349.291" y1="364.07" x2="409.079" y2="364.07"/>
		</g>
	</g>
</g>
<g id="DESINED_BY_FREEPIK">
	<g>
		<g id="XMLID_7_">
			<g id="XMLID_26_">
				<path id="XMLID_56_" style="fill:#F9FBFC;" d="M260.104,465.464c-0.433,0.444-0.804,0.933-1.109,1.454l-0.464-0.241
					c-0.067-0.297-0.351-0.502-0.659-0.467c-0.332,0.04-0.567,0.34-0.529,0.671c0.038,0.331,0.338,0.566,0.669,0.528
					c0.065-0.008,0.127-0.025,0.185-0.053l0.451,0.235c-0.251,0.554-0.434,1.139-0.54,1.743l0.748,0.132
					c0.229-1.307,0.85-2.507,1.792-3.474L260.104,465.464z"/>
				<path id="XMLID_55_" style="fill:#F9FBFC;" d="M265.591,463.163c-0.171,0-0.34,0.005-0.508,0.017l-0.074-0.626
					c0.188-0.149,0.296-0.389,0.265-0.645c-0.046-0.393-0.401-0.674-0.794-0.628c-0.395,0.045-0.675,0.402-0.628,0.795
					c0.029,0.255,0.188,0.462,0.404,0.563l0.072,0.624c-0.714,0.117-1.401,0.333-2.06,0.646l0.328,0.684
					c0.935-0.446,1.941-0.673,2.994-0.673c0.498,0,0.994,0.052,1.477,0.158l0.159-0.741
					C266.692,463.222,266.143,463.163,265.591,463.163z"/>
				<path id="XMLID_39_" style="fill:#F9FBFC;" d="M272.193,465.71c0.332-0.041,0.566-0.342,0.525-0.672
					c-0.039-0.331-0.341-0.566-0.671-0.525c-0.31,0.038-0.536,0.304-0.53,0.608l-0.416,0.363c-0.419-0.43-0.891-0.813-1.408-1.141
					l-0.404,0.642c1.135,0.716,2.021,1.727,2.563,2.925l0.691-0.313c-0.25-0.554-0.566-1.071-0.941-1.544l0.401-0.352
					C272.064,465.714,272.128,465.719,272.193,465.71z"/>
				<path id="XMLID_38_" style="fill:#F9FBFC;" d="M265.044,473.371c-0.385,0.022-0.775,0.035-1.157,0.035
					c-0.88,0-1.733-0.061-2.478-0.18c-0.391-0.062-0.846-0.154-1.27-0.292c1.046,1.861,3.069,3.125,5.388,3.125
					c2.855,0,5.263-1.916,5.95-4.504c-0.683,0.45-1.505,0.825-2.458,1.123C267.839,473.047,266.464,473.285,265.044,473.371z"/>
				<path id="XMLID_27_" style="fill:#F9FBFC;" d="M265.591,464.68c-3.352,0-6.079,2.666-6.079,5.943
					c0,0.425,0.046,0.849,0.137,1.261c0.674,0.483,2.707,0.891,5.349,0.73c2.88-0.173,5.296-0.958,6.671-2.158
					c-0.004-0.195-0.021-0.39-0.045-0.581C271.243,466.913,268.65,464.68,265.591,464.68z M263.432,471.193
					c-1.018,0-1.849-0.829-1.849-1.85c0-1.021,0.83-1.851,1.849-1.851c1.02,0,1.85,0.83,1.85,1.851
					C265.281,470.364,264.451,471.193,263.432,471.193z M268.169,470.285c-0.75,0-1.359-0.609-1.359-1.359s0.609-1.361,1.359-1.361
					s1.361,0.611,1.361,1.361S268.919,470.285,268.169,470.285z"/>
			</g>
			<path id="XMLID_24_" style="fill:#F9FBFC;" d="M281.595,466.547c-0.294-0.116-0.806-0.31-1.382-0.238
				c-0.552,0.068-0.845,0.341-0.845,1.006v0.866h2.229v1.717h-2.229v5.456h-1.932v-5.456h-1.339v-1.717h1.339v-0.888
				c0-1.68,0.897-2.783,2.569-2.783c0.642,0,1.157,0.121,1.589,0.309V466.547z"/>
			<path id="XMLID_22_" style="fill:#F9FBFC;" d="M286.298,469.877c-0.178-0.029-0.358-0.045-0.525-0.045
				c-0.895,0-1.511,0.548-1.511,1.613v3.908h-1.932v-7.173h1.872v0.784c0.451-0.672,1.141-0.976,2.021-0.976
				c0.414,0,0.849,0.128,1.096,0.337L286.298,469.877z"/>
			<path id="XMLID_19_" style="fill:#F9FBFC;" d="M293.965,471.756c0,0.223-0.016,0.489-0.037,0.652h-5.084
				c0.207,1.035,0.933,1.487,1.842,1.487c0.622,0,1.295-0.252,1.815-0.689l1.132,1.243c-0.813,0.747-1.851,1.089-3.056,1.089
				c-2.199,0-3.725-1.496-3.725-3.754c0-2.258,1.481-3.796,3.628-3.796C292.543,467.989,293.958,469.522,293.965,471.756z
				 M288.852,471.09h3.175c-0.179-0.917-0.733-1.436-1.563-1.436C289.555,469.654,289.021,470.201,288.852,471.09z"/>
			<path id="XMLID_16_" style="fill:#F9FBFC;" d="M301.618,471.756c0,0.223-0.016,0.489-0.037,0.652h-5.084
				c0.206,1.035,0.933,1.487,1.842,1.487c0.622,0,1.296-0.252,1.813-0.689l1.133,1.243c-0.814,0.747-1.851,1.089-3.058,1.089
				c-2.197,0-3.722-1.496-3.722-3.754c0-2.258,1.479-3.796,3.626-3.796C300.197,467.989,301.61,469.522,301.618,471.756z
				 M296.505,471.09h3.175c-0.178-0.917-0.733-1.436-1.561-1.436C297.208,469.654,296.674,470.201,296.505,471.09z"/>
			<path id="XMLID_13_" style="fill:#F9FBFC;" d="M309.964,471.764c0,2.154-1.495,3.775-3.471,3.775
				c-0.962,0-1.645-0.379-2.109-0.934v3.709h-1.925v-10.134h1.888v0.792c0.467-0.584,1.154-0.983,2.139-0.983
				C308.469,467.989,309.964,469.61,309.964,471.764z M304.286,471.764c0,1.133,0.749,1.976,1.845,1.976
				c1.139,0,1.85-0.88,1.85-1.976s-0.711-1.976-1.85-1.976C305.035,469.788,304.286,470.631,304.286,471.764z"/>
			<path id="XMLID_10_" style="fill:#F9FBFC;" d="M313.068,465.835c0,0.696-0.542,1.23-1.237,1.23c-0.696,0-1.229-0.533-1.229-1.23
				c0-0.696,0.532-1.243,1.229-1.243C312.526,464.592,313.068,465.139,313.068,465.835z M312.808,475.353h-1.931v-7.173h1.931
				V475.353z"/>
			<path id="XMLID_8_" style="fill:#F9FBFC;" d="M316.031,470.735l2.703-2.555h2.367l-3.479,3.375l3.502,3.798h-2.377l-2.717-2.902
				v2.902h-1.931v-10.658h1.931V470.735z"/>
		</g>
		<g>
			<path style="fill:#F9FBFC;" d="M184.412,475.289v-1.055c-0.527,0.717-1.391,1.229-2.387,1.229c-1.846,0-3.149-1.405-3.149-3.705
				c0-2.257,1.289-3.721,3.149-3.721c0.952,0,1.816,0.468,2.387,1.245v-3.765h1.099v9.771H184.412z M184.412,473.37v-3.208
				c-0.395-0.615-1.244-1.144-2.124-1.144c-1.42,0-2.27,1.173-2.27,2.74c0,1.567,0.85,2.725,2.27,2.725
				C183.168,474.483,184.018,473.985,184.412,473.37z"/>
			<path style="fill:#F9FBFC;" d="M186.932,471.743c0-2.05,1.465-3.705,3.487-3.705c2.138,0,3.397,1.67,3.397,3.794v0.278h-5.727
				c0.087,1.333,1.025,2.445,2.549,2.445c0.805,0,1.626-0.321,2.182-0.893l0.528,0.718c-0.704,0.703-1.655,1.083-2.813,1.083
				C188.44,475.464,186.932,473.956,186.932,471.743z M190.403,468.946c-1.509,0-2.256,1.274-2.314,2.358h4.643
				C192.718,470.25,192.015,468.946,190.403,468.946z"/>
			<path style="fill:#F9FBFC;" d="M194.607,474.352l0.571-0.792c0.469,0.542,1.362,1.012,2.329,1.012c1.085,0,1.67-0.513,1.67-1.216
				c0-1.714-4.379-0.659-4.379-3.282c0-1.098,0.951-2.035,2.636-2.035c1.201,0,2.051,0.454,2.622,1.025l-0.513,0.762
				c-0.425-0.513-1.201-0.895-2.109-0.895c-0.966,0-1.567,0.484-1.567,1.113c0,1.554,4.379,0.528,4.379,3.282
				c0,1.186-0.952,2.138-2.783,2.138C196.306,475.464,195.325,475.113,194.607,474.352z"/>
			<path style="fill:#F9FBFC;" d="M201.477,466.471c0-0.411,0.337-0.748,0.732-0.748c0.41,0,0.747,0.337,0.747,0.748
				c0,0.41-0.337,0.731-0.747,0.731C201.814,467.202,201.477,466.881,201.477,466.471z M201.667,475.289v-7.075h1.099v7.075H201.667
				z"/>
			<path style="fill:#F9FBFC;" d="M204.582,477.105l0.557-0.82c0.585,0.703,1.288,0.967,2.3,0.967c1.172,0,2.271-0.571,2.271-2.125
				v-1.01c-0.513,0.718-1.378,1.26-2.374,1.26c-1.846,0-3.149-1.377-3.149-3.663c0-2.271,1.29-3.676,3.149-3.676
				c0.953,0,1.802,0.468,2.374,1.245v-1.069h1.098v6.87c0,2.343-1.64,3.076-3.369,3.076
				C206.237,478.16,205.417,477.925,204.582,477.105z M209.709,473.252v-3.09c-0.381-0.615-1.231-1.144-2.11-1.144
				c-1.421,0-2.27,1.129-2.27,2.695c0,1.554,0.849,2.696,2.27,2.696C208.478,474.41,209.328,473.868,209.709,473.252z"/>
			<path style="fill:#F9FBFC;" d="M217.414,475.289v-4.629c0-1.245-0.63-1.642-1.582-1.642c-0.864,0-1.684,0.528-2.094,1.1v5.171
				h-1.099v-7.075h1.099v1.025c0.498-0.587,1.465-1.201,2.519-1.201c1.48,0,2.256,0.747,2.256,2.284v4.967H217.414z"/>
			<path style="fill:#F9FBFC;" d="M219.932,471.743c0-2.05,1.465-3.705,3.486-3.705c2.139,0,3.399,1.67,3.399,3.794v0.278h-5.728
				c0.088,1.333,1.025,2.445,2.549,2.445c0.805,0,1.626-0.321,2.183-0.893l0.527,0.718c-0.703,0.703-1.655,1.083-2.813,1.083
				C221.441,475.464,219.932,473.956,219.932,471.743z M223.404,468.946c-1.509,0-2.256,1.274-2.314,2.358h4.643
				C225.719,470.25,225.015,468.946,223.404,468.946z"/>
			<path style="fill:#F9FBFC;" d="M233.351,475.289v-1.055c-0.528,0.717-1.392,1.229-2.389,1.229c-1.845,0-3.148-1.405-3.148-3.705
				c0-2.257,1.289-3.721,3.148-3.721c0.953,0,1.817,0.468,2.389,1.245v-3.765h1.098v9.771H233.351z M233.351,473.37v-3.208
				c-0.396-0.615-1.245-1.144-2.124-1.144c-1.421,0-2.27,1.173-2.27,2.74c0,1.567,0.85,2.725,2.27,2.725
				C232.105,474.483,232.955,473.985,233.351,473.37z"/>
			<path style="fill:#F9FBFC;" d="M239.692,475.289v-9.771h1.098v3.765c0.571-0.777,1.421-1.245,2.388-1.245
				c1.845,0,3.149,1.464,3.149,3.721c0,2.3-1.304,3.705-3.149,3.705c-0.996,0-1.86-0.513-2.388-1.229v1.055H239.692z M242.9,474.483
				c1.435,0,2.285-1.157,2.285-2.725c0-1.567-0.85-2.74-2.285-2.74c-0.865,0-1.729,0.528-2.11,1.144v3.208
				C241.172,473.985,242.036,474.483,242.9,474.483z"/>
			<path style="fill:#F9FBFC;" d="M247.528,477.06c0.161,0.074,0.425,0.118,0.601,0.118c0.484,0,0.806-0.161,1.055-0.748
				l0.468-1.068l-2.959-7.148h1.187l2.358,5.8l2.344-5.8h1.199l-3.543,8.511c-0.425,1.024-1.143,1.421-2.08,1.436
				c-0.235,0-0.601-0.044-0.806-0.104L247.528,477.06z"/>
		</g>
	</g>
</g>
</svg>
